{"title":"La.Herencia.Valdemar II..2010.DVDRip.XViD.AC3-LuCiFeR","uid":6542268,"size":1469082577,"categoryP":"video","categoryS":"movies","magnet":"?xt=urn:btih:f342d59562ef9b155b148240f27aa5303de6f98e&amp;dn=La.Herencia.Valdemar+II..2010.DVDRip.XViD.AC3-LuCiFeR&amp;tr=udp%3A%2F%2Ftracker.openbittorrent.com%3A80&amp;tr=udp%3A%2F%2Fopen.demonii.com%3A1337&amp;tr=udp%3A%2F%2Ftracker.coppersurfer.tk%3A6969&amp;tr=udp%3A%2F%2Fexodus.desync.com%3A6969","seeders":0,"leechers":1,"uploader":"HORRORTEAM-BG","files":-1,"time":1310689718,"description":"La.Herencia.Valdemar II..2010.DVDRip.XViD.AC3-LuCiFeR.avi\nFormat                           : AVI\nFormat/Info                      : Audio Video Interleave\nFile size                        : 1.37 GiB\nDuration                         : 1h 30mn\nOverall bit rate                 : 2 164 Kbps\nWriting application              : VirtualDubMod 1.5.4.1 (build 2178/release)\nWriting library                  : VirtualDubMod build 2178/release\n\nVideo\nID                               : 0\nFormat                           : MPEG-4 Visual\nFormat profile                   : Advanced Simple@L5\nFormat settings, BVOP            : No\nFormat settings, QPel            : No\nFormat settings, GMC             : No warppoints\nFormat settings, Matrix          : Custom\nCodec ID                         : XVID\nCodec ID/Hint                    : XviD\nDuration                         : 1h 30mn\nBit rate                         : 1 709 Kbps\nWidth                            : 720 pixels\nHeight                           : 384 pixels\nDisplay aspect ratio             : 1.875\nFrame rate                       : 25.000 fps\nColor space                      : YUV\nChroma subsampling               : 4:2:0\nBit depth                        : 8 bits\nScan type                        : Progressive\nCompression mode                 : Lossy\nBits/(Pixel*Frame)               : 0.247\nStream size                      : 1.08 GiB (79%)\nWriting library                  : XviD 58\n\nAudio\nID                               : 1\nFormat                           : AC-3\nFormat/Info                      : Audio Coding 3\nMode extension                   : CM (complete main)\nCodec ID                         : 2000\nDuration                         : 1h 30mn\nBit rate mode                    : Constant\nBit rate                         : 448 Kbps\nChannel(s)                       : 6 channels\nChannel positions                : Front: L C R, Side: L R, LFE\nSampling rate                    : 48.0 KHz\nBit depth                        : 16 bits\nCompression mode                 : Lossy\nStream size                      : 290 MiB (21%)\nAlignment                        : Aligned on interleaves\nInterleave, duration             : 96 ms (2.40 video frames)\nInterleave, preload duration     : 96 ms\nLanguage                         : Spanish\n\n","torrent":{"xt":"urn:btih:f342d59562ef9b155b148240f27aa5303de6f98e","amp;dn":"La.Herencia.Valdemar+II..2010.DVDRip.XViD.AC3-LuCiFeR","amp;tr":["udp%3A%2F%2Ftracker.openbittorrent.com%3A80","udp%3A%2F%2Fopen.demonii.com%3A1337","udp%3A%2F%2Ftracker.coppersurfer.tk%3A6969","udp%3A%2F%2Fexodus.desync.com%3A6969"],"infoHash":"f342d59562ef9b155b148240f27aa5303de6f98e","infoHashBuffer":{"type":"Buffer","data":[243,66,213,149,98,239,155,21,91,20,130,64,242,122,165,48,61,230,249,142]},"announce":[],"urlList":[]}}